<svg xmlns="http://www.w3.org/2000/svg" version="1.1" xmlns:xlink="http://www.w3.org/1999/xlink" xmlns:svgjs="http://svgjs.dev/svgjs" width="1000" height="189" viewBox="0 0 1000 189"><g transform="matrix(1,0,0,1,-0.6060606060606233,-0.2910787100717016)"><svg viewBox="0 0 396 75" data-background-color="#ee3e38" preserveAspectRatio="xMidYMid meet" height="189" width="1000" xmlns="http://www.w3.org/2000/svg" xmlns:xlink="http://www.w3.org/1999/xlink"><g id="tight-bounds" transform="matrix(1,0,0,1,0.2400000000000091,0.11550742463163033)"><svg viewBox="0 0 395.52 74.76898515073673" height="74.76898515073673" width="395.52"><g><svg viewBox="0 0 538.8259181043977 101.85949400682594" height="74.76898515073673" width="395.52"><g><rect width="6.6467397167390585" height="74.07293160409556" x="412.9198421904164" y="13.893281201365191" fill="#ffffff" opacity="1" stroke-width="0" stroke="transparent" fill-opacity="1" class="rect-o-0" data-fill-palette-color="primary" rx="1%" id="o-0" data-palette-color="#ffffff"></rect></g><g transform="matrix(1,0,0,1,0,14.077542225255975)"><svg viewBox="0 0 395.52 73.70440955631399" height="73.70440955631399" width="395.52"><g id="textblocktransform"><svg viewBox="0 0 395.52 73.70440955631399" height="73.70440955631399" width="395.52" id="textblock"><g><svg viewBox="0 0 395.52 73.70440955631399" height="73.70440955631399" width="395.52"><g transform="matrix(1,0,0,1,0,0)"><svg width="395.52" viewBox="3.049999952316284 -40.5 219.8300018310547 40.95000076293945" height="73.70440955631399" data-palette-color="#ffffff"><g class="undefined-text-0" data-fill-palette-color="primary" id="text-0"><path d="M12.9 0L3.05 0 3.05-40.5 12.6-40.5Q17.55-40.5 20.33-39.15 23.1-37.8 24.28-35 25.45-32.2 25.45-27.9L25.45-27.9 25.45-13.1Q25.45-8.7 24.28-5.78 23.1-2.85 20.38-1.43 17.65 0 12.9 0L12.9 0ZM10.45-35.25L10.45-5.15 12.7-5.15Q15.25-5.15 16.35-6.05 17.45-6.95 17.7-8.68 17.95-10.4 17.95-12.9L17.95-12.9 17.95-28.4Q17.95-30.85 17.6-32.35 17.25-33.85 16.15-34.55 15.05-35.25 12.6-35.25L12.6-35.25 10.45-35.25ZM42.75-14.05L30.7-14.05 30.7-18.65 42.75-18.65 42.75-14.05ZM65.75 0L48.64 0 48.64-40.5 65.64-40.5 65.64-35.3 56.05-35.3 56.05-23.65 63.59-23.65 63.59-18.5 56.05-18.5 56.05-5.1 65.75-5.1 65.75 0ZM73.44 0L67.49 0 73.79-15.55 67.74-28.9 74.44-28.9 78.09-20.9 81.29-28.9 87.09-28.9 80.94-14.6 87.54 0 80.79 0 76.79-8.85 73.44 0ZM98.74 0.35L98.74 0.35Q95.99 0.35 94.42-0.55 92.84-1.45 92.19-3.15 91.54-4.85 91.54-7.2L91.54-7.2 91.54-24.4 88.64-24.4 88.64-28.9 91.54-28.9 91.54-37.55 98.39-37.55 98.39-28.9 102.79-28.9 102.79-24.4 98.39-24.4 98.39-7.8Q98.39-6.3 99.04-5.68 99.69-5.05 100.99-5.05L100.99-5.05Q101.54-5.05 102.07-5.1 102.59-5.15 103.09-5.2L103.09-5.2 103.09 0Q102.24 0.1 101.12 0.23 99.99 0.35 98.74 0.35ZM113.94 0L107.14 0 107.14-28.9 113.94-28.9 113.94-24.45Q115.44-27 116.94-28.13 118.44-29.25 120.24-29.25L120.24-29.25Q120.54-29.25 120.76-29.23 120.99-29.2 121.29-29.15L121.29-29.15 121.29-22.1Q120.69-22.35 119.96-22.53 119.24-22.7 118.49-22.7L118.49-22.7Q117.14-22.7 116.04-22.05 114.94-21.4 113.94-19.9L113.94-19.9 113.94 0ZM130.24 0.45L130.24 0.45Q128.29 0.45 126.89-0.58 125.49-1.6 124.74-3.18 123.99-4.75 123.99-6.45L123.99-6.45Q123.99-9.15 124.99-11 125.99-12.85 127.64-14.1 129.29-15.35 131.39-16.28 133.49-17.2 135.64-17.95L135.64-17.95 135.64-20.45Q135.64-21.7 135.46-22.55 135.29-23.4 134.81-23.85 134.34-24.3 133.34-24.3L133.34-24.3Q132.49-24.3 131.96-23.9 131.44-23.5 131.21-22.78 130.99-22.05 130.94-21.1L130.94-21.1 130.84-19.35 124.39-19.6Q124.54-24.6 126.86-26.98 129.19-29.35 133.94-29.35L133.94-29.35Q138.29-29.35 140.26-26.95 142.24-24.55 142.24-20.45L142.24-20.45 142.24-7.1Q142.24-5.5 142.31-4.2 142.39-2.9 142.51-1.85 142.64-0.8 142.74 0L142.74 0 136.64 0Q136.49-1 136.26-2.27 136.04-3.55 135.94-4.15L135.94-4.15Q135.44-2.4 134.04-0.98 132.64 0.45 130.24 0.45ZM132.74-4.6L132.74-4.6Q133.39-4.6 133.96-4.93 134.54-5.25 134.99-5.7 135.44-6.15 135.64-6.5L135.64-6.5 135.64-14.55Q134.54-13.9 133.56-13.25 132.59-12.6 131.86-11.83 131.14-11.05 130.76-10.15 130.39-9.25 130.39-8.05L130.39-8.05Q130.39-6.45 131.01-5.53 131.64-4.6 132.74-4.6ZM155.93 0.45L155.93 0.45Q152.58 0.45 150.56-0.83 148.53-2.1 147.61-4.48 146.68-6.85 146.68-10.1L146.68-10.1 146.68-18.8Q146.68-22.15 147.61-24.5 148.53-26.85 150.58-28.1 152.63-29.35 155.93-29.35L155.93-29.35Q159.03-29.35 161.01-28.38 162.98-27.4 163.88-25.43 164.78-23.45 164.78-20.45L164.78-20.45 164.78-18.05 158.38-18.05 158.38-20.6Q158.38-22.1 158.16-22.98 157.93-23.85 157.38-24.23 156.83-24.6 155.93-24.6L155.93-24.6Q155.03-24.6 154.48-24.13 153.93-23.65 153.71-22.6 153.48-21.55 153.48-19.7L153.48-19.7 153.48-9.1Q153.48-6.3 154.08-5.33 154.68-4.35 155.98-4.35L155.98-4.35Q156.98-4.35 157.51-4.8 158.03-5.25 158.21-6.13 158.38-7 158.38-8.25L158.38-8.25 158.38-11.35 164.78-11.35 164.78-8.6Q164.78-5.7 163.86-3.65 162.93-1.6 160.96-0.58 158.98 0.45 155.93 0.45ZM177.58 0.35L177.58 0.35Q174.83 0.35 173.26-0.55 171.68-1.45 171.03-3.15 170.38-4.85 170.38-7.2L170.38-7.2 170.38-24.4 167.48-24.4 167.48-28.9 170.38-28.9 170.38-37.55 177.23-37.55 177.23-28.9 181.63-28.9 181.63-24.4 177.23-24.4 177.23-7.8Q177.23-6.3 177.88-5.68 178.53-5.05 179.83-5.05L179.83-5.05Q180.38-5.05 180.91-5.1 181.43-5.15 181.93-5.2L181.93-5.2 181.93 0Q181.08 0.1 179.96 0.23 178.83 0.35 177.58 0.35ZM194.58 0.45L194.58 0.45Q191.43 0.45 189.38-0.73 187.33-1.9 186.3-4.15 185.28-6.4 185.28-9.6L185.28-9.6 185.28-19.3Q185.28-22.5 186.3-24.75 187.33-27 189.38-28.18 191.43-29.35 194.58-29.35L194.58-29.35Q197.73-29.35 199.8-28.18 201.88-27 202.9-24.75 203.93-22.5 203.93-19.3L203.93-19.3 203.93-9.6Q203.93-6.4 202.9-4.15 201.88-1.9 199.8-0.73 197.73 0.45 194.58 0.45ZM194.63-4.25L194.63-4.25Q195.78-4.25 196.33-4.9 196.88-5.55 197.03-6.68 197.18-7.8 197.18-9.15L197.18-9.15 197.18-19.75Q197.18-21.1 197.03-22.2 196.88-23.3 196.33-23.98 195.78-24.65 194.63-24.65L194.63-24.65Q193.48-24.65 192.93-23.98 192.38-23.3 192.2-22.2 192.03-21.1 192.03-19.75L192.03-19.75 192.03-9.15Q192.03-7.8 192.2-6.68 192.38-5.55 192.93-4.9 193.48-4.25 194.63-4.25ZM215.53 0L208.73 0 208.73-28.9 215.53-28.9 215.53-24.45Q217.03-27 218.53-28.13 220.03-29.25 221.83-29.25L221.83-29.25Q222.13-29.25 222.35-29.23 222.58-29.2 222.88-29.15L222.88-29.15 222.88-22.1Q222.28-22.35 221.55-22.53 220.83-22.7 220.08-22.7L220.08-22.7Q218.73-22.7 217.63-22.05 216.53-21.4 215.53-19.9L215.53-19.9 215.53 0Z" fill="#ffffff" data-fill-palette-color="primary"></path></g></svg></g></svg></g></svg></g></svg></g><g transform="matrix(1,0,0,1,436.9664240975718,0)"><svg viewBox="0 0 101.85949400682594 101.85949400682594" height="101.85949400682594" width="101.85949400682594"><g><svg xmlns="http://www.w3.org/2000/svg" xmlns:xlink="http://www.w3.org/1999/xlink" version="1.1" x="0" y="0" viewBox="19 19 474 474" style="enable-background:new 0 0 512 512;" xml:space="preserve" height="101.85949400682594" width="101.85949400682594" class="icon-icon-0" data-fill-palette-color="accent" id="icon-0"><g fill="#ffffff" data-fill-palette-color="accent"><g fill="#ffffff" data-fill-palette-color="accent"><g fill="#ffffff" data-fill-palette-color="accent"><path d="M486 493H26c-3.866 0-7-3.134-7-7v-80c0-3.866 3.134-7 7-7h460c3.866 0 7 3.134 7 7v80C493 489.866 489.866 493 486 493zM33 479h446v-66H33V479z" fill="#ffffff" data-fill-palette-color="accent"></path></g><g fill="#ffffff" data-fill-palette-color="accent"><path d="M486 413H26c-3.866 0-7-3.134-7-7v-80c0-2.009 0.863-3.92 2.369-5.249l170-150c1.279-1.128 2.926-1.751 4.631-1.751h120c1.705 0 3.353 0.623 4.632 1.751l170 150c1.506 1.329 2.368 3.24 2.368 5.249v80C493 409.866 489.866 413 486 413zM33 399h446v-69.841L313.354 183H198.647L33 329.159V399z" fill="#ffffff" data-fill-palette-color="accent"></path></g><g fill="#ffffff" data-fill-palette-color="accent"><path d="M316 183H196c-3.866 0-7-3.134-7-7V26c0-3.866 3.134-7 7-7h120c3.866 0 7 3.134 7 7v150C323 179.866 319.866 183 316 183zM203 169h106V33H203V169z" fill="#ffffff" data-fill-palette-color="accent"></path></g><g fill="#ffffff" data-fill-palette-color="accent"><path d="M346 493c-3.866 0-7-3.134-7-7v-30c0-3.866 3.134-7 7-7s7 3.134 7 7v30C353 489.866 349.866 493 346 493z" fill="#ffffff" data-fill-palette-color="accent"></path></g><g fill="#ffffff" data-fill-palette-color="accent"><path d="M386 493c-3.866 0-7-3.134-7-7v-30c0-3.866 3.134-7 7-7s7 3.134 7 7v30C393 489.866 389.866 493 386 493z" fill="#ffffff" data-fill-palette-color="accent"></path></g><g fill="#ffffff" data-fill-palette-color="accent"><path d="M426 493c-3.866 0-7-3.134-7-7v-30c0-3.866 3.134-7 7-7s7 3.134 7 7v30C433 489.866 429.866 493 426 493z" fill="#ffffff" data-fill-palette-color="accent"></path></g><g fill="#ffffff" data-fill-palette-color="accent"><path d="M395.997 333c-1.636 0-3.278-0.57-4.606-1.732l-80-70c-2.909-2.545-3.204-6.968-0.658-9.877 2.546-2.909 6.967-3.205 9.877-0.659l80 70c2.909 2.545 3.204 6.968 0.658 9.877C399.884 332.191 397.945 333 395.997 333z" fill="#ffffff" data-fill-palette-color="accent"></path></g></g></g></svg></g></svg></g></svg></g><defs></defs></svg><rect width="395.52" height="74.76898515073673" fill="none" stroke="none" visibility="hidden"></rect></g></svg></g></svg>